<svg height="52" viewBox="0 0 244 52" width="244" xmlns="http://www.w3.org/2000/svg"><g fill="none" fill-rule="evenodd" transform="translate(.334 .948)"><g transform="translate(0 40.048)"><path d="m2.84162833 9.89877518c-1.34660882 0-2.84162833-.53908003-2.84162833-3.17773491 0-2.23707299 1.10435018-3.66443468 3.2192026-3.66443468.57836521 0 1.15891293.09603045 1.65652527.24225863l-.08075288.63292797c-.47142221-.18769588-1.04978743-.32301151-1.66962033-.32301151-1.57577239 0-2.37020612 1.18510305-2.37020612 2.93765877 0 1.48192445.42995452 2.74559788 2.23489048 2.74559788.65911809 0 1.35970388-.15932325 1.84422115-.41685946l.06765782.63292797c-.42995452.17460082-1.18510306.39066934-2.06028966.39066934" fill="#343534"/><path d="m2.84162833 9.89877518c-1.34660882 0-2.84162833-.53908003-2.84162833-3.17773491 0-2.23707299 1.10435018-3.66443468 3.2192026-3.66443468.57836521 0 1.15891293.09603045 1.65652527.24225863l-.08075288.63292797c-.47142221-.18769588-1.04978743-.32301151-1.66962033-.32301151-1.57577239 0-2.37020612 1.18510305-2.37020612 2.93765877 0 1.48192445.42995452 2.74559788 2.23489048 2.74559788.65911809 0 1.35970388-.15932325 1.84422115-.41685946l.06765782.63292797c-.42995452.17460082-1.18510306.39066934-2.06028966.39066934z" stroke="#343534" stroke-width=".15"/><path d="m12.7569906 3.60921718c-1.158913 0-2.2632631.8751866-2.2632631 2.82853326 0 1.84640366.8359014 2.90928615 2.2763581 2.90928615 1.1458179 0 2.2217955-.86209155 2.2217955-2.92238121 0-1.75037321-.7660611-2.8154382-2.2348905-2.8154382m-.1353157 6.32927968c-1.7503732 0-2.8678184-1.11744524-2.8678184-3.44618366 0-1.84640366 1.0912551-3.46146124 3.096982-3.46146124 1.5081146 0 2.883096.83371891 2.883096 3.35233573 0 1.9402516-1.1458178 3.55530917-3.1122596 3.55530917" fill="#343534"/><path d="m12.7569906 3.60921718c-1.158913 0-2.2632631.8751866-2.2632631 2.82853326 0 1.84640366.8359014 2.90928615 2.2763581 2.90928615 1.1458179 0 2.2217955-.86209155 2.2217955-2.92238121 0-1.75037321-.7660611-2.8154382-2.2348905-2.8154382zm-.1353157 6.32927968c-1.7503732 0-2.8678184-1.11744524-2.8678184-3.44618366 0-1.84640366 1.0912551-3.46146124 3.096982-3.46146124 1.5081146 0 2.883096.83371891 2.883096 3.35233573 0 1.9402516-1.1458178 3.55530917-3.1122596 3.55530917z" stroke="#343534" stroke-width=".15"/><path d="m26.0938741 9.83177211v-4.36283796c0-1.18510306-.3230115-1.87259378-1.4404567-1.87259378-1.3335138 0-2.2501681 1.26585593-2.2501681 3.0293242v3.20610754h-.7136808v-6.69375889h.7420535c0 .48451727-.0414677 1.17200799-.1222206 1.60196251l.0261901.01309506c.3775743-1.04978742 1.2527609-1.73727815 2.450959-1.73727815 1.5495823 0 2.0210045.958122 2.0210045 2.15632012v4.65965935z" fill="#343534"/><path d="m26.0938741 9.83177211v-4.36283796c0-1.18510306-.3230115-1.87259378-1.4404567-1.87259378-1.3335138 0-2.2501681 1.26585593-2.2501681 3.0293242v3.20610754h-.7136808v-6.69375889h.7420535c0 .48451727-.0414677 1.17200799-.1222206 1.60196251l.0261901.01309506c.3775743-1.04978742 1.2527609-1.73727815 2.450959-1.73727815 1.5495823 0 2.0210045.958122 2.0210045 2.15632012v4.65965935z" stroke="#343534" stroke-width=".15"/><path d="m34.4205872 9.93893336c-.5128899 0-1.0235973-.03928518-1.4273617-.13313312l.0261901-.72895842c.432137.13531564.9843121.22916358 1.5081146.22916358 1.1043502 0 1.8725938-.49761234 1.8725938-1.30514113 0-1.7918409-3.4876514-.6613006-3.4876514-3.08388696 0-1.09125512.9013767-1.88787135 2.5186168-1.88787135.4299545 0 .9144718.06984032 1.3466088.16368826l-.0283726.6591181c-.4561446-.1484107-.9690345-.24225864-1.4404568-.24225864-1.1043501 0-1.6696203.47142221-1.6696203 1.21347569 0 1.83112609 3.4876514.72677591 3.4876514 3.05551433 0 1.11744524-.9952247 2.06028966-2.7063127 2.06028966" fill="#343534"/><path d="m34.4205872 9.93893336c-.5128899 0-1.0235973-.03928518-1.4273617-.13313312l.0261901-.72895842c.432137.13531564.9843121.22916358 1.5081146.22916358 1.1043502 0 1.8725938-.49761234 1.8725938-1.30514113 0-1.7918409-3.4876514-.6613006-3.4876514-3.08388696 0-1.09125512.9013767-1.88787135 2.5186168-1.88787135.4299545 0 .9144718.06984032 1.3466088.16368826l-.0283726.6591181c-.4561446-.1484107-.9690345-.24225864-1.4404568-.24225864-1.1043501 0-1.6696203.47142221-1.6696203 1.21347569 0 1.83112609 3.4876514.72677591 3.4876514 3.05551433 0 1.11744524-.9952247 2.06028966-2.7063127 2.06028966z" stroke="#343534" stroke-width=".15"/><path d="m45.361511 3.5823723c-1.0366924 0-1.7765633.75514854-1.9664417 1.91187897h3.7713777c.0261901-1.11744524-.6591181-1.91187897-1.804936-1.91187897m2.5731796 2.49242669h-4.6072791c-.093848 2.31564336.7682436 3.24539272 2.3702061 3.24539272.7136808 0 1.4688294-.18769588 1.9402516-.42995451l.0676578.65911809c-.5805477.24225863-1.2942286.39066933-2.1279475.39066933-1.9795368 0-3.0162291-1.09125512-3.0162291-3.43527111 0-1.99263185 1.0628824-3.4745563 2.8547234-3.4745563 1.8049359 0 2.5317118 1.25276088 2.5317118 2.65393245 0 .08075288 0 .213886-.013095.39066933" fill="#343534"/><path d="m45.361511 3.5823723c-1.0366924 0-1.7765633.75514854-1.9664417 1.91187897h3.7713777c.0261901-1.11744524-.6591181-1.91187897-1.804936-1.91187897zm2.5731796 2.49242669h-4.6072791c-.093848 2.31564336.7682436 3.24539272 2.3702061 3.24539272.7136808 0 1.4688294-.18769588 1.9402516-.42995451l.0676578.65911809c-.5805477.24225863-1.2942286.39066933-2.1279475.39066933-1.9795368 0-3.0162291-1.09125512-3.0162291-3.43527111 0-1.99263185 1.0628824-3.4745563 2.8547234-3.4745563 1.8049359 0 2.5317118 1.25276088 2.5317118 2.65393245 0 .08075288 0 .213886-.013095.39066933z" stroke="#343534" stroke-width=".15"/><path d="m53.9710774 9.83220861h.7136808v-6.69375889h-.7136808zm.3644792-8.04036771c-.2968214 0-.53908-.22916357-.53908-.53908002 0-.2968214.2422586-.53908003.53908-.53908003s.53908.22916357.53908.53908003c0 .29682139-.2422586.53908002-.53908.53908002z" fill="#343534"/><path d="m53.9710774 9.83220861h.7136808v-6.69375889h-.7136808zm.3644792-8.04036771c-.2968214 0-.53908-.22916357-.53908-.53908002 0-.2968214.2422586-.53908003.53908-.53908003s.53908.22916357.53908.53908003c0 .29682139-.2422586.53908002-.53908.53908002z" stroke="#343534" stroke-width=".15"/><path d="m61.346 9.832h.713v-9.832h-.713z" fill="#343534"/><path d="m61.346 9.832h.713v-9.832h-.713z" stroke="#343534" stroke-width=".15"/><path d="m77.7242093 3.5823723c-1.0366924 0-1.7765634.75514854-1.9664417 1.91187897h3.7713776c.0261902-1.11744524-.659118-1.91187897-1.8049359-1.91187897m2.5731795 2.49242669h-4.6072791c-.0938479 2.31564336.7682436 3.24539272 2.3702062 3.24539272.7136808 0 1.4688293-.18769588 1.9402516-.42995451l.0676578.65911809c-.5805478.24225863-1.2942286.39066933-2.1279475.39066933-1.9795368 0-3.0184117-1.09125512-3.0184117-3.43527111 0-1.99263185 1.065065-3.4745563 2.8569059-3.4745563 1.804936 0 2.5317119 1.25276088 2.5317119 2.65393245 0 .08075288 0 .213886-.0130951.39066933" fill="#343534"/><path d="m77.7242093 3.5823723c-1.0366924 0-1.7765634.75514854-1.9664417 1.91187897h3.7713776c.0261902-1.11744524-.659118-1.91187897-1.8049359-1.91187897zm2.5731795 2.49242669h-4.6072791c-.0938479 2.31564336.7682436 3.24539272 2.3702062 3.24539272.7136808 0 1.4688293-.18769588 1.9402516-.42995451l.0676578.65911809c-.5805478.24225863-1.2942286.39066933-2.1279475.39066933-1.9795368 0-3.0184117-1.09125512-3.0184117-3.43527111 0-1.99263185 1.065065-3.4745563 2.8569059-3.4745563 1.804936 0 2.5317119 1.25276088 2.5317119 2.65393245 0 .08075288 0 .213886-.0130951.39066933z" stroke="#343534" stroke-width=".15"/><path d="m90.7380813 9.83177211v-4.36283796c0-1.18510306-.3230115-1.87259378-1.4404567-1.87259378-1.3335138 0-2.2501681 1.26585593-2.2501681 3.0293242v3.20610754h-.7136808v-6.69375889h.7420534c0 .48451727-.0414677 1.17200799-.1222205 1.60196251l.0261901.01309506c.3775743-1.04978742 1.2527609-1.73727815 2.450959-1.73727815 1.5495822 0 2.0210045.958122 2.0210045 2.15632012v4.65965935z" fill="#343534"/><path d="m90.7380813 9.83177211v-4.36283796c0-1.18510306-.3230115-1.87259378-1.4404567-1.87259378-1.3335138 0-2.2501681 1.26585593-2.2501681 3.0293242v3.20610754h-.7136808v-6.69375889h.7420534c0 .48451727-.0414677 1.17200799-.1222205 1.60196251l.0261901.01309506c.3775743-1.04978742 1.2527609-1.73727815 2.450959-1.73727815 1.5495822 0 2.0210045.958122 2.0210045 2.15632012v4.65965935z" stroke="#343534" stroke-width=".15"/><path d="m107.151868 9.89877518c-1.346609 0-2.841629-.53908003-2.841629-3.17773491 0-2.23707299 1.104351-3.66443468 3.219203-3.66443468.578365 0 1.158913.09603045 1.656525.24225863l-.080753.63292797c-.471422-.18769588-1.049787-.32301151-1.66962-.32301151-1.575772 0-2.370206 1.18510305-2.370206 2.93765877 0 1.48192445.429955 2.74559788 2.23489 2.74559788.659119 0 1.359704-.15932325 1.844222-.41685946l.067657.63292797c-.429954.17460082-1.185103.39066934-2.060289.39066934" fill="#343534"/><path d="m107.151868 9.89877518c-1.346609 0-2.841629-.53908003-2.841629-3.17773491 0-2.23707299 1.104351-3.66443468 3.219203-3.66443468.578365 0 1.158913.09603045 1.656525.24225863l-.080753.63292797c-.471422-.18769588-1.049787-.32301151-1.66962-.32301151-1.575772 0-2.370206 1.18510305-2.370206 2.93765877 0 1.48192445.429955 2.74559788 2.23489 2.74559788.659119 0 1.359704-.15932325 1.844222-.41685946l.067657.63292797c-.429954.17460082-1.185103.39066934-2.060289.39066934z" stroke="#343534" stroke-width=".15"/><path d="m117.067885 3.60921718c-1.158913 0-2.263263.8751866-2.263263 2.82853326 0 1.84640366.835901 2.90928615 2.276358 2.90928615 1.145818 0 2.221795-.86209155 2.221795-2.92238121 0-1.75037321-.768243-2.8154382-2.23489-2.8154382m-.135316 6.32927968c-1.750373 0-2.867818-1.11744524-2.867818-3.44618366 0-1.84640366 1.091255-3.46146124 3.096982-3.46146124 1.508114 0 2.883096.83371891 2.883096 3.35233573 0 1.9402516-1.145818 3.55530917-3.11226 3.55530917" fill="#343534"/><path d="m117.067885 3.60921718c-1.158913 0-2.263263.8751866-2.263263 2.82853326 0 1.84640366.835901 2.90928615 2.276358 2.90928615 1.145818 0 2.221795-.86209155 2.221795-2.92238121 0-1.75037321-.768243-2.8154382-2.23489-2.8154382zm-.135316 6.32927968c-1.750373 0-2.867818-1.11744524-2.867818-3.44618366 0-1.84640366 1.091255-3.46146124 3.096982-3.46146124 1.508114 0 2.883096.83371891 2.883096 3.35233573 0 1.9402516-1.145818 3.55530917-3.11226 3.55530917z" stroke="#343534" stroke-width=".15"/><path d="m134.593005 9.83177211v-4.36283796c0-1.13272281-.268448-1.87259378-1.372798-1.87259378-1.145818 0-2.208701 1.1305403-2.208701 3.05769684v3.1777349h-.713681v-4.37593302c0-1.01050224-.202973-1.85949872-1.374981-1.85949872-1.239666 0-2.2087 1.25276087-2.2087 3.05769684v3.1777349h-.713681v-6.69375889h.742053c0 .48451727-.041468 1.17200799-.12222 1.60196251l.02619.01309506c.377574-1.04978742 1.281133-1.73727815 2.424769-1.73727815 1.656525 0 1.898783 1.25494339 1.872593 1.71108803.229164-.63292797.942845-1.71108803 2.396397-1.71108803 1.239665 0 1.966441.64820554 1.966441 2.15632012v4.65965935z" fill="#343534"/><path d="m134.593005 9.83177211v-4.36283796c0-1.13272281-.268448-1.87259378-1.372798-1.87259378-1.145818 0-2.208701 1.1305403-2.208701 3.05769684v3.1777349h-.713681v-4.37593302c0-1.01050224-.202973-1.85949872-1.374981-1.85949872-1.239666 0-2.2087 1.25276087-2.2087 3.05769684v3.1777349h-.713681v-6.69375889h.742053c0 .48451727-.041468 1.17200799-.12222 1.60196251l.02619.01309506c.377574-1.04978742 1.281133-1.73727815 2.424769-1.73727815 1.656525 0 1.898783 1.25494339 1.872593 1.71108803.229164-.63292797.942845-1.71108803 2.396397-1.71108803 1.239665 0 1.966441.64820554 1.966441 2.15632012v4.65965935z" stroke="#343534" stroke-width=".15"/><path d="m150.552175 9.83177211v-4.36283796c0-1.13272281-.268449-1.87259378-1.372799-1.87259378-1.145818 0-2.2087 1.1305403-2.2087 3.05769684v3.1777349h-.715864v-4.37593302c0-1.01050224-.200791-1.85949872-1.372799-1.85949872-1.239665 0-2.2087 1.25276087-2.2087 3.05769684v3.1777349h-.713681v-6.69375889h.742054c0 .48451727-.041468 1.17200799-.122221 1.60196251l.02619.01309506c.377575-1.04978742 1.281134-1.73727815 2.424769-1.73727815 1.656525 0 1.898784 1.25494339 1.872594 1.71108803.229164-.63292797.942844-1.71108803 2.396396-1.71108803 1.239666 0 1.966442.64820554 1.966442 2.15632012v4.65965935z" fill="#343534"/><path d="m150.552175 9.83177211v-4.36283796c0-1.13272281-.268449-1.87259378-1.372799-1.87259378-1.145818 0-2.2087 1.1305403-2.2087 3.05769684v3.1777349h-.715864v-4.37593302c0-1.01050224-.200791-1.85949872-1.372799-1.85949872-1.239665 0-2.2087 1.25276087-2.2087 3.05769684v3.1777349h-.713681v-6.69375889h.742054c0 .48451727-.041468 1.17200799-.122221 1.60196251l.02619.01309506c.377575-1.04978742 1.281134-1.73727815 2.424769-1.73727815 1.656525 0 1.898784 1.25494339 1.872594 1.71108803.229164-.63292797.942844-1.71108803 2.396396-1.71108803 1.239666 0 1.966442.64820554 1.966442 2.15632012v4.65965935z" stroke="#343534" stroke-width=".15"/><path d="m162.296263 9.83177211c0-.48451727.039285-1.172008.12222-1.60414502l-.028372-.01309506c-.377575 1.05196993-1.252761 1.73727814-2.450959 1.73727814-1.5474 0-2.021005-.95593948-2.021005-2.1541376v-4.65965935h.713681v4.36283796c0 1.18510306.325194 1.87259378 1.442639 1.87259378 1.333514 0 2.247986-1.26585594 2.247986-3.02932421v-3.20610753h.713681v6.69375889z" fill="#343534"/><path d="m162.296263 9.83177211c0-.48451727.039285-1.172008.12222-1.60414502l-.028372-.01309506c-.377575 1.05196993-1.252761 1.73727814-2.450959 1.73727814-1.5474 0-2.021005-.95593948-2.021005-2.1541376v-4.65965935h.713681v4.36283796c0 1.18510306.325194 1.87259378 1.442639 1.87259378 1.333514 0 2.247986-1.26585594 2.247986-3.02932421v-3.20610753h.713681v6.69375889z" stroke="#343534" stroke-width=".15"/><path d="m174.096877 9.83177211v-4.36283796c0-1.18510306-.323011-1.87259378-1.440456-1.87259378-1.333514 0-2.250169 1.26585593-2.250169 3.0293242v3.20610754h-.71368v-6.69375889h.742053c0 .48451727-.041468 1.17200799-.12222 1.60196251l.02619.01309506c.377574-1.04978742 1.254943-1.73727815 2.450959-1.73727815 1.549582 0 2.021004.958122 2.021004 2.15632012v4.65965935z" fill="#343534"/><path d="m174.096877 9.83177211v-4.36283796c0-1.18510306-.323011-1.87259378-1.440456-1.87259378-1.333514 0-2.250169 1.26585593-2.250169 3.0293242v3.20610754h-.71368v-6.69375889h.742053c0 .48451727-.041468 1.17200799-.12222 1.60196251l.02619.01309506c.377574-1.04978742 1.254943-1.73727815 2.450959-1.73727815 1.549582 0 2.021004.958122 2.021004 2.15632012v4.65965935z" stroke="#343534" stroke-width=".15"/><path d="m181.466778 9.83220861h.713681v-6.69375889h-.713681zm.364479-8.04036771c-.296821 0-.53908-.22916357-.53908-.53908002 0-.2968214.242259-.53908003.53908-.53908003.294639 0 .53908.22916357.53908.53908003 0 .29682139-.244441.53908002-.53908.53908002z" fill="#343534"/><path d="m181.466778 9.83220861h.713681v-6.69375889h-.713681zm.364479-8.04036771c-.296821 0-.53908-.22916357-.53908-.53908002 0-.2968214.242259-.53908003.53908-.53908003.294639 0 .53908.22916357.53908.53908003 0 .29682139-.244441.53908002-.53908.53908002z" stroke="#343534" stroke-width=".15"/><path d="m190.982522 9.89877518c-1.346608 0-2.841628-.53908003-2.841628-3.17773491 0-2.23707299 1.10435-3.66443468 3.219203-3.66443468.578365 0 1.15673.09603045 1.656525.24225863l-.080753.63292797c-.471422-.18769588-1.05197-.32301151-1.66962-.32301151-1.575773 0-2.370206 1.18510305-2.370206 2.93765877 0 1.48192445.429954 2.74559788 2.23489 2.74559788.659118 0 1.359704-.15932325 1.844221-.41685946l.067658.63292797c-.429954.17460082-1.185103.39066934-2.06029.39066934" fill="#343534"/><path d="m190.982522 9.89877518c-1.346608 0-2.841628-.53908003-2.841628-3.17773491 0-2.23707299 1.10435-3.66443468 3.219203-3.66443468.578365 0 1.15673.09603045 1.656525.24225863l-.080753.63292797c-.471422-.18769588-1.05197-.32301151-1.66962-.32301151-1.575773 0-2.370206 1.18510305-2.370206 2.93765877 0 1.48192445.429954 2.74559788 2.23489 2.74559788.659118 0 1.359704-.15932325 1.844221-.41685946l.067658.63292797c-.429954.17460082-1.185103.39066934-2.06029.39066934z" stroke="#343534" stroke-width=".15"/><path d="m202.368024 6.62653758c-2.815439 0-3.419994.90137673-3.419994 1.58886745s.484517 1.11744524 1.224388 1.11744524c1.320419 0 2.195606-1.33133124 2.195606-2.62555981zm0 3.20610754c0-.56745267.013095-1.11962776.080752-1.52339215l-.02619-.01309506c-.325194.90355924-1.213475 1.64343021-2.411673 1.64343021-1.010503 0-1.802754-.5107074-1.802754-1.56267733 0-1.3204187 1.398989-2.32873842 4.159865-2.32873842v-.63292797c0-1.14581788-.39067-1.79184091-1.630336-1.79184091-.646023 0-1.466646.20079095-2.060289.60673785l-.080753-.67439566c.619833-.2968214 1.374981-.52598497 2.289453-.52598497 1.711088 0 2.195605.92974936 2.195605 2.12794748v2.54698945c0 .71368084.013096 1.50811457.028373 2.12794748z" fill="#343534"/><path d="m202.368024 6.62653758c-2.815439 0-3.419994.90137673-3.419994 1.58886745s.484517 1.11744524 1.224388 1.11744524c1.320419 0 2.195606-1.33133124 2.195606-2.62555981zm0 3.20610754c0-.56745267.013095-1.11962776.080752-1.52339215l-.02619-.01309506c-.325194.90355924-1.213475 1.64343021-2.411673 1.64343021-1.010503 0-1.802754-.5107074-1.802754-1.56267733 0-1.3204187 1.398989-2.32873842 4.159865-2.32873842v-.63292797c0-1.14581788-.39067-1.79184091-1.630336-1.79184091-.646023 0-1.466646.20079095-2.060289.60673785l-.080753-.67439566c.619833-.2968214 1.374981-.52598497 2.289453-.52598497 1.711088 0 2.195605.92974936 2.195605 2.12794748v2.54698945c0 .71368084.013096 1.50811457.028373 2.12794748z" stroke="#343534" stroke-width=".15"/><path d="m211.447048 9.92562005c-1.278951 0-1.641248-.60673784-1.641248-1.92497403v-4.29518014h-1.59105v-.56745266h1.59105v-2.28945324l.711499-.20079094v2.49024418h2.114852v.56745266h-2.114852v3.89141575c0 1.34660881.231346 1.68271539 1.106532 1.68271539.349202 0 .711499-.05456275 1.00832-.13313312v.65911809c-.336107.06547531-.779156.12003806-1.185103.12003806" fill="#343534"/><path d="m211.447048 9.92562005c-1.278951 0-1.641248-.60673784-1.641248-1.92497403v-4.29518014h-1.59105v-.56745266h1.59105v-2.28945324l.711499-.20079094v2.49024418h2.114852v.56745266h-2.114852v3.89141575c0 1.34660881.231346 1.68271539 1.106532 1.68271539.349202 0 .711499-.05456275 1.00832-.13313312v.65911809c-.336107.06547531-.779156.12003806-1.185103.12003806z" stroke="#343534" stroke-width=".15"/><path d="m218.484334 9.83220861h.713681v-6.69375889h-.713681zm.362297-8.04036771c-.294639 0-.53908-.22916357-.53908-.53908002 0-.2968214.244441-.53908003.53908-.53908003.296821 0 .53908.22916357.53908.53908003 0 .29682139-.242259.53908002-.53908.53908002z" fill="#343534"/><path d="m218.484334 9.83220861h.713681v-6.69375889h-.713681zm.362297-8.04036771c-.294639 0-.53908-.22916357-.53908-.53908002 0-.2968214.244441-.53908003.53908-.53908003.296821 0 .53908.22916357.53908.53908003 0 .29682139-.242259.53908002-.53908.53908002z" stroke="#343534" stroke-width=".15"/><path d="m228.134958 3.60921718c-1.158913 0-2.263263.8751866-2.263263 2.82853326 0 1.84640366.835901 2.90928615 2.276358 2.90928615 1.145818 0 2.221795-.86209155 2.221795-2.92238121 0-1.75037321-.766061-2.8154382-2.23489-2.8154382m-.135316 6.32927968c-1.750373 0-2.867818-1.11744524-2.867818-3.44618366 0-1.84640366 1.091255-3.46146124 3.096982-3.46146124 1.508114 0 2.883096.83371891 2.883096 3.35233573 0 1.9402516-1.145818 3.55530917-3.11226 3.55530917" fill="#343534"/><path d="m228.134958 3.60921718c-1.158913 0-2.263263.8751866-2.263263 2.82853326 0 1.84640366.835901 2.90928615 2.276358 2.90928615 1.145818 0 2.221795-.86209155 2.221795-2.92238121 0-1.75037321-.766061-2.8154382-2.23489-2.8154382zm-.135316 6.32927968c-1.750373 0-2.867818-1.11744524-2.867818-3.44618366 0-1.84640366 1.091255-3.46146124 3.096982-3.46146124 1.508114 0 2.883096.83371891 2.883096 3.35233573 0 1.9402516-1.145818 3.55530917-3.11226 3.55530917z" stroke="#343534" stroke-width=".15"/><path d="m241.471841 9.83177211v-4.36283796c0-1.18510306-.323011-1.87259378-1.440457-1.87259378-1.333513 0-2.250168 1.26585593-2.250168 3.0293242v3.20610754h-.71368v-6.69375889h.739871c0 .48451727-.039286 1.17200799-.120038 1.60196251l.02619.01309506c.377574-1.04978742 1.252761-1.73727815 2.450959-1.73727815 1.549582 0 2.021004.958122 2.021004 2.15632012v4.65965935z" fill="#343534"/><path d="m241.471841 9.83177211v-4.36283796c0-1.18510306-.323011-1.87259378-1.440457-1.87259378-1.333513 0-2.250168 1.26585593-2.250168 3.0293242v3.20610754h-.71368v-6.69375889h.739871c0 .48451727-.039286 1.17200799-.120038 1.60196251l.02619.01309506c.377574-1.04978742 1.252761-1.73727815 2.450959-1.73727815 1.549582 0 2.021004.958122 2.021004 2.15632012v4.65965935z" stroke="#343534" stroke-width=".15"/></g><path d="m8.88194366 18.4483225h10.54807194v-11.53020155h-4.7142221c-2.1366775 0-3.832488 1.71763555-4.375933 4.43049575zm-4.54398631-9.17963803c1.39025902-7.00804037 6.17213895-8.59036029 10.98675655-8.59036029h8.9199193c.8140763 0 1.4251792.94720944 1.4251792 2.03409954v27.58256438c0 1.1305403-.7114983 2.0340995-1.5604948 2.0340995h-3.1209897c-.8817341 0-1.5583123-.9035592-1.5583123-2.0777497v-5.5632186h-11.76809517l-1.11962775 5.5632186c-.23789361 1.1741905-1.08470758 2.0777497-1.96644172 2.0777497h-3.25630527c-.88173414 0-1.39025902-.9035592-1.15236541-2.0340995zm32.31402825-2.35121828v12.11947931h6.0368234c3.2563052 0 5.663614-.9057417 5.663614-6.0586484 0-5.15508916-2.4073088-6.06083091-5.663614-6.06083091zm7.9356073-6.23979676c6.3074545 0 10.0046269 3.79756781 10.0046269 12.30062767 0 8.4986949-3.6971724 12.2984452-10.0046269 12.2984452h-7.9356073v4.9739408c0 1.1305403-.6787606 2.0799323-1.5604948 2.0799323h-3.1188071c-.8489965 0-1.5604948-.949392-1.5604948-2.0799323v-27.49308142c0-1.17637301.6787607-2.07993225 1.5255746-2.07993225zm19.2914262 6.23979676v12.11947931h6.0368233c3.2563053 0 5.6636141-.9057417 5.6636141-6.0586484 0-5.15508916-2.4073088-6.06083091-5.6636141-6.06083091zm7.9356072-6.23979676c6.3074546 0 10.0046269 3.79756781 10.0046269 12.30062767 0 8.4986949-3.6971723 12.2984452-10.0046269 12.2984452h-7.9356072v4.9739408c0 1.1305403-.6787607 2.0799323-1.5604948 2.0799323h-3.1188072c-.8489964 0-1.5604948-.949392-1.5604948-2.0799323v-27.49308142c0-1.17637301.6787607-2.07993225 1.5255747-2.07993225zm18.7820283 17.77065307h10.5480724v-11.53020155h-4.7142225c-2.1366775 0-3.832488 1.71763555-4.375933 4.43049575zm-4.5439863-9.17963803c1.3902591-7.00804037 6.172139-8.59036029 10.9867566-8.59036029h8.9199191c.814077 0 1.425179.94720944 1.425179 2.03409954v27.58256438c0 1.1305403-.71368 2.0340995-1.560494 2.0340995h-3.12099c-.879552 0-1.558312-.9035592-1.558312-2.0777497v-5.5632186h-11.7680956l-1.1196277 5.5632186c-.2378936 1.1741905-1.0847076 2.0777497-1.9664417 2.0777497h-3.2563053c-.8817342 0-1.390259-.9035592-1.1523654-2.0340995zm30.7539697-8.59036029c.881734 0 1.560495.94720944 1.560495 2.12358246v23.28738426h14.413298c.846814 0 1.560495.9057417 1.560495 2.0821147v2.0799323c0 1.1741905-.713681 2.0799322-1.560495 2.0799322h-19.094782c-.846814 0-1.558313-.9057417-1.558313-2.036282v-27.49308146c0-1.17637302.678761-2.12358246 1.558313-2.12358246zm24.107354 15.82581822c0 6.7832418 2.001362 10.5349769 7.088793 10.5349769 5.085249 0 7.086611-3.7517351 7.086611-10.5349769 0-6.78324181-2.001362-10.53715941-7.086611-10.53715941-5.087431 0-7.088793 3.7539176-7.088793 10.53715941m7.088793-16.5041424c8.479052 0 13.326407 4.74695976 13.326407 16.5041424 0 11.7550001-4.847355 16.5041424-13.326407 16.5041424s-13.32859-4.7491423-13.32859-16.5041424c0-11.75718264 4.849538-16.5041424 13.32859-16.5041424m21.596157 16.5041424c0 6.7832418 2.001362 10.5349769 7.088793 10.5349769 5.085249 0 7.086611-3.7517351 7.086611-10.5349769 0-6.78324181-2.001362-10.53715941-7.086611-10.53715941-5.087431 0-7.088793 3.7539176-7.088793 10.53715941m7.088793-16.5041424c8.479052 0 13.326408 4.74695976 13.326408 16.5041424 0 11.7550001-4.847356 16.5041424-13.326408 16.5041424s-13.32859-4.7491423-13.32859-16.5041424c0-11.75718264 4.849538-16.5041424 13.32859-16.5041424m26.071613.49673933h4.205697c4.273355 0 8.852261 3.29995548 8.852261 8.14076318 0 2.03191699-1.254943 2.44004649-1.69581 2.44004649h-1.966442c-.949392 0-1.69581-.5870953-2.239255-2.0799323-.541263-1.53648721-1.831126-2.26108061-3.526937-2.26108061h-4.984853c-2.036282 0-2.918016.94939196-2.918016 2.53389439 0 5.24457212 17.940234 2.21524792 17.940234 14.01608072 0 5.4257205-2.374571 9.2254708-10.513152 9.2254708h-5.019774c-4.271172 0-8.850079-3.302138-8.850079-8.1407632 0-2.0340995 1.254944-2.4400464 1.695811-2.4400464h1.966442c.949392 0 1.69581.5870952 2.237073 2.0799322.543445 1.5364872 1.833308 2.2610806 3.529119 2.2610806h5.798929c2.0341 0 2.915834-.9515744 2.915834-2.5338944 0-5.2445721-17.940234-2.3047308-17.940234-14.01826321 0-5.42353794 2.374571-9.22328826 10.513152-9.22328826m23.802238 17.95158317h10.548072v-11.53020155h-4.714222c-2.136678 0-3.832488 1.71763555-4.375933 4.43049575zm-4.543986-9.17963803c1.390259-7.00804037 6.172139-8.59036029 10.988939-8.59036029h8.917737c.814076 0 1.425179.94720944 1.425179 2.03409954v27.58256438c0 1.1305403-.713681 2.0340995-1.560495 2.0340995h-3.12099c-.879551 0-1.558312-.9035592-1.558312-2.0777497v-5.5632186h-11.768095l-1.119628 5.5632186c-.237894 1.1741905-1.084707 2.0777497-1.966442 2.0777497h-3.256305c-.881734 0-1.390259-.9035592-1.154548-2.0340995z" fill="#343534"/></g></svg>